<mxfile host="65bd71144e">
    <diagram id="bQ7W_oDz6xG4jmHArsdn" name="Page-1">
        <mxGraphModel dx="615" dy="506" grid="1" gridSize="10" guides="1" tooltips="1" connect="1" arrows="1" fold="1" page="1" pageScale="1" pageWidth="827" pageHeight="1169" math="0" shadow="0">
            <root>
                <mxCell id="0"/>
                <mxCell id="1" parent="0"/>
                <mxCell id="3" value="&lt;font style=&quot;font-size: 17px&quot;&gt;קריאה לפונקציה&lt;/font&gt;" style="rounded=0;whiteSpace=wrap;html=1;" vertex="1" parent="1">
                    <mxGeometry x="380" y="370" width="120" height="60" as="geometry"/>
                </mxCell>
                <mxCell id="5" value="&lt;font style=&quot;font-size: 17px&quot;&gt;מערכת לקליטת מהירות&lt;/font&gt;" style="rounded=0;whiteSpace=wrap;html=1;" vertex="1" parent="1">
                    <mxGeometry x="180" y="240" width="120" height="60" as="geometry"/>
                </mxCell>
                <mxCell id="7" value="&lt;span style=&quot;font-size: 17px&quot;&gt;מערכת לקליטת זווית&lt;/span&gt;" style="rounded=0;whiteSpace=wrap;html=1;" vertex="1" parent="1">
                    <mxGeometry x="380" y="240" width="120" height="60" as="geometry"/>
                </mxCell>
                <mxCell id="8" value="&lt;font style=&quot;font-size: 17px&quot;&gt;מערכת לקליטת גובה&lt;/font&gt;" style="rounded=0;whiteSpace=wrap;html=1;" vertex="1" parent="1">
                    <mxGeometry x="580" y="240" width="120" height="60" as="geometry"/>
                </mxCell>
                <mxCell id="9" value="&lt;font style=&quot;font-size: 17px&quot;&gt;שליחת נתונים לפונקציה&lt;/font&gt;" style="rounded=0;whiteSpace=wrap;html=1;" vertex="1" parent="1">
                    <mxGeometry x="380" y="500" width="120" height="60" as="geometry"/>
                </mxCell>
                <mxCell id="10" value="&lt;font style=&quot;font-size: 17px&quot;&gt;חישוב&lt;/font&gt;" style="rounded=0;whiteSpace=wrap;html=1;" vertex="1" parent="1">
                    <mxGeometry x="380" y="630" width="120" height="60" as="geometry"/>
                </mxCell>
                <mxCell id="11" value="&lt;font style=&quot;font-size: 17px&quot;&gt;קבלת נתונים&lt;/font&gt;" style="rounded=0;whiteSpace=wrap;html=1;" vertex="1" parent="1">
                    <mxGeometry x="380" y="760" width="120" height="60" as="geometry"/>
                </mxCell>
                <mxCell id="12" value="" style="curved=1;endArrow=classic;html=1;fontSize=17;exitX=0.5;exitY=1;exitDx=0;exitDy=0;entryX=0.5;entryY=0;entryDx=0;entryDy=0;" edge="1" parent="1" source="5" target="9">
                    <mxGeometry width="50" height="50" relative="1" as="geometry">
                        <mxPoint x="400" y="470" as="sourcePoint"/>
                        <mxPoint x="450" y="420" as="targetPoint"/>
                        <Array as="points">
                            <mxPoint x="370" y="430"/>
                            <mxPoint x="420" y="470"/>
                        </Array>
                    </mxGeometry>
                </mxCell>
                <mxCell id="13" value="" style="curved=1;endArrow=classic;html=1;fontSize=17;exitX=0.437;exitY=0.952;exitDx=0;exitDy=0;exitPerimeter=0;entryX=0.411;entryY=-0.008;entryDx=0;entryDy=0;entryPerimeter=0;" edge="1" parent="1" source="7" target="9">
                    <mxGeometry width="50" height="50" relative="1" as="geometry">
                        <mxPoint x="310" y="400" as="sourcePoint"/>
                        <mxPoint x="360" y="350" as="targetPoint"/>
                        <Array as="points">
                            <mxPoint x="270" y="370"/>
                        </Array>
                    </mxGeometry>
                </mxCell>
                <mxCell id="14" value="" style="curved=1;endArrow=classic;html=1;fontSize=17;exitX=0.5;exitY=1;exitDx=0;exitDy=0;" edge="1" parent="1" source="8" target="9">
                    <mxGeometry width="50" height="50" relative="1" as="geometry">
                        <mxPoint x="590" y="390" as="sourcePoint"/>
                        <mxPoint x="640" y="340" as="targetPoint"/>
                        <Array as="points">
                            <mxPoint x="590" y="340"/>
                        </Array>
                    </mxGeometry>
                </mxCell>
                <mxCell id="15" value="" style="endArrow=classic;html=1;fontSize=17;exitX=0.5;exitY=1;exitDx=0;exitDy=0;entryX=0.5;entryY=0;entryDx=0;entryDy=0;" edge="1" parent="1" source="7" target="3">
                    <mxGeometry width="50" height="50" relative="1" as="geometry">
                        <mxPoint x="460" y="370" as="sourcePoint"/>
                        <mxPoint x="510" y="320" as="targetPoint"/>
                    </mxGeometry>
                </mxCell>
                <mxCell id="16" value="" style="endArrow=classic;html=1;fontSize=17;exitX=0.5;exitY=1;exitDx=0;exitDy=0;entryX=0.62;entryY=-0.008;entryDx=0;entryDy=0;entryPerimeter=0;" edge="1" parent="1" source="3" target="9">
                    <mxGeometry width="50" height="50" relative="1" as="geometry">
                        <mxPoint x="220" y="600" as="sourcePoint"/>
                        <mxPoint x="270" y="550" as="targetPoint"/>
                    </mxGeometry>
                </mxCell>
                <mxCell id="17" value="" style="endArrow=classic;html=1;fontSize=17;exitX=0.5;exitY=1;exitDx=0;exitDy=0;entryX=0.5;entryY=0;entryDx=0;entryDy=0;" edge="1" parent="1" source="9" target="10">
                    <mxGeometry width="50" height="50" relative="1" as="geometry">
                        <mxPoint x="420" y="630" as="sourcePoint"/>
                        <mxPoint x="470" y="580" as="targetPoint"/>
                    </mxGeometry>
                </mxCell>
                <mxCell id="18" value="" style="endArrow=classic;html=1;fontSize=17;exitX=0.5;exitY=1;exitDx=0;exitDy=0;entryX=0.5;entryY=0;entryDx=0;entryDy=0;" edge="1" parent="1" source="10" target="11">
                    <mxGeometry width="50" height="50" relative="1" as="geometry">
                        <mxPoint x="410" y="760" as="sourcePoint"/>
                        <mxPoint x="460" y="710" as="targetPoint"/>
                    </mxGeometry>
                </mxCell>
            </root>
        </mxGraphModel>
    </diagram>
</mxfile>